<svg width="158" height="25" viewBox="0 0 158 25" xmlns="http://www.w3.org/2000/svg">
  <path
    fill-rule="evenodd"
    clip-rule="evenodd"
    d="M117.432 21.3089C119.775 21.3089 121.744 20.4852 123.341 18.8379C124.937 17.1903 125.735 15.0715 125.735 12.481C125.776 10.015 125.004 7.9224 123.418 6.20197C121.832 4.48213 119.837 3.63263 117.432 3.65318C115.089 3.65318 113.125 4.48213 111.539 6.13974C109.953 7.79794 109.16 9.9117 109.16 12.481C109.16 14.9679 109.932 17.0611 111.477 18.7601C113.021 20.4594 115.006 21.3089 117.432 21.3089ZM117.432 24.7906C114.074 24.873 111.171 23.7235 108.725 21.34C106.279 18.9574 105.076 16.0044 105.117 12.481C105.034 9.18608 106.195 6.3006 108.601 3.82402C111.005 1.34803 113.949 0.13043 117.432 0.171819C120.832 0.109589 123.75 1.26495 126.186 3.63762C128.622 6.01058 129.819 8.95829 129.778 12.481C129.86 15.7968 128.694 18.6876 126.28 21.1536C123.864 23.6199 120.915 24.8317 117.432 24.7906Z"
    fill="#034752"
  />
  <path
    fill-rule="evenodd"
    clip-rule="evenodd"
    d="M29.8203 24.2931H45.431V21.0293H29.8203V24.2931Z"
    fill="#034752"
  />
  <path
    fill-rule="evenodd"
    clip-rule="evenodd"
    d="M29.8203 3.91782H45.431V0.668945H29.8203V3.91782Z"
    fill="#034752"
  />
  <path
    fill-rule="evenodd"
    clip-rule="evenodd"
    d="M29.8203 13.8554H45.431V10.6162H29.8203V13.8554Z"
    fill="#034752"
  />
  <path
    fill-rule="evenodd"
    clip-rule="evenodd"
    d="M57.0722 11.9214L68.8891 0.668945H64.0381L52.3464 11.979C52.2016 12.119 52.2025 12.3515 52.3478 12.4906L64.691 24.2929H70.0089L57.0722 11.9214Z"
    fill="#034752"
  />
  <path
    fill-rule="evenodd"
    clip-rule="evenodd"
    d="M154.425 0.668945V18.6669L141.377 0.668945H137.832L154.456 24.2932H158.002V0.668945H154.425Z"
    fill="#034752"
  />
  <path
    fill-rule="evenodd"
    clip-rule="evenodd"
    d="M137.832 24.7947H140.874V13.8555H137.832V24.7947Z"
    fill="#034752"
  />
  <path
    fill-rule="evenodd"
    clip-rule="evenodd"
    d="M7.80469 24.2931H11.6919V7.19629H7.80469V24.2931Z"
    fill="#034752"
  />
  <path
    fill-rule="evenodd"
    clip-rule="evenodd"
    d="M0 0.668945V3.93279H7.8052H11.6924H19.4979V0.668945H0Z"
    fill="#034752"
  />
  <path
    fill-rule="evenodd"
    clip-rule="evenodd"
    d="M85.3711 24.2931H89.2583V7.19629H85.3711V24.2931Z"
    fill="#034752"
  />
  <path
    fill-rule="evenodd"
    clip-rule="evenodd"
    d="M77.5664 0.668945V3.93279H85.3719H89.2591H97.0646V0.668945H77.5664Z"
    fill="#034752"
  />
</svg>
